<svg width="350" height="260" viewBox="0 0 350 260" fill="none" xmlns="http://www.w3.org/2000/svg">
<path d="M148.689 110.868C148.139 110.443 147.615 109.984 147.118 109.493L147.798 108.733C148.266 109.196 148.76 109.628 149.277 110.028L148.689 110.868Z" fill="#E4E4E4"/>
<path d="M144.388 105.989C143.627 104.703 143.027 103.318 142.604 101.869L143.552 101.563C143.95 102.926 144.514 104.228 145.23 105.439L144.388 105.989ZM141.875 97.4097C141.865 97.1632 141.86 96.9164 141.86 96.6694C141.86 95.4023 141.99 94.1388 142.248 92.901L143.218 93.1244C142.975 94.2888 142.853 95.4774 142.853 96.6694C142.853 96.9018 142.857 97.1339 142.867 97.3659L141.875 97.4097ZM144.59 89.1198L143.708 88.6425C144.117 87.8067 144.59 87.0063 145.12 86.2489C145.445 85.7844 145.797 85.3407 146.173 84.9204L146.896 85.6348C146.547 86.0246 146.221 86.4361 145.919 86.8669C145.42 87.5798 144.976 88.3331 144.59 89.1198H144.59ZM150.08 83.0698L149.611 82.1505C150.892 81.4293 152.276 80.9301 153.708 80.6721L153.876 81.7001C152.549 81.9391 151.267 82.4016 150.08 83.0698H150.08ZM161.707 82.9559C160.51 82.3085 159.221 81.8701 157.89 81.658L158.039 80.627C159.476 80.856 160.869 81.3293 162.161 82.0284L161.707 82.9559Z" fill="#E4E4E4"/>
<path d="M166.033 87.0832C165.708 86.5156 165.332 85.9821 164.91 85.4899L165.647 84.7916C166.112 85.3335 166.526 85.9209 166.883 86.5458L166.033 87.0832Z" fill="#E4E4E4"/>
<path d="M127.987 75.9879L127.188 75.37C127.585 74.8027 128.003 74.2417 128.432 73.7026L129.193 74.3711C128.778 74.8939 128.372 75.4379 127.987 75.9879Z" fill="#E4E4E4"/>
<path d="M177.158 74.782C176.395 73.6698 175.55 72.6225 174.631 71.6498L175.335 70.9148C176.291 71.9265 177.17 73.0158 177.963 74.1726L177.158 74.782ZM131.894 71.3757L131.218 70.6122C132.207 69.6449 133.254 68.744 134.351 67.915L134.93 68.7621C133.867 69.5654 132.853 70.4383 131.894 71.3757ZM171.668 68.9709C170.613 68.1566 169.51 67.4118 168.367 66.7407L168.85 65.8299C170.029 66.522 171.167 67.2903 172.256 68.1303L171.668 68.9709ZM138.256 66.5725L137.783 65.6555C138.971 64.9796 140.199 64.3826 141.458 63.8681L141.817 64.84C140.597 65.3388 139.407 65.9174 138.256 66.5725ZM164.827 64.9626C163.612 64.4492 162.368 64.0168 161.102 63.6679L161.353 62.659C162.66 63.019 163.944 63.4653 165.197 63.995L164.827 64.9626ZM145.557 63.5899L145.316 62.5782C146.627 62.2337 147.957 61.9752 149.298 61.8041L149.417 62.8396C148.117 63.0054 146.828 63.256 145.557 63.5898V63.5899ZM157.251 62.8769C155.952 62.6989 154.644 62.6065 153.335 62.6001L153.34 61.5571C154.69 61.5638 156.04 61.6593 157.379 61.8428L157.251 62.8769Z" fill="#E4E4E4"/>
<path d="M179.991 80.1605C179.747 79.5314 179.476 78.9054 179.186 78.2999L180.073 77.8314C180.374 78.4613 180.656 79.1123 180.91 79.7664L179.991 80.1605Z" fill="#E4E4E4"/>
<path d="M182.711 141.449L182.37 140.469C182.982 140.234 183.598 139.982 184.202 139.721L184.579 140.686C183.964 140.952 183.335 141.209 182.711 141.449Z" fill="#E4E4E4"/>
<path d="M167.238 144.635L167.201 143.592C168.489 143.543 169.791 143.439 171.07 143.284L171.184 144.32C169.879 144.479 168.551 144.584 167.238 144.635ZM163.28 144.622C161.965 144.564 160.638 144.45 159.336 144.283L159.456 143.248C160.733 143.411 162.034 143.523 163.322 143.581L163.28 144.622ZM175.094 143.682L174.903 142.658C176.167 142.398 177.437 142.082 178.678 141.718L178.945 142.722C177.679 143.093 176.383 143.416 175.094 143.682ZM155.43 143.616C154.142 143.341 152.848 143.008 151.586 142.627L151.86 141.625C153.098 141.998 154.365 142.325 155.628 142.594L155.43 143.616ZM147.829 141.32C146.599 140.834 145.372 140.289 144.183 139.702L144.605 138.758C145.77 139.334 146.973 139.867 148.178 140.343L147.829 141.32ZM140.671 137.787C139.532 137.105 138.403 136.364 137.313 135.587L137.871 134.724C138.939 135.486 140.046 136.212 141.162 136.88L140.671 137.787Z" fill="#E4E4E4"/>
<path d="M134.121 133.098C133.603 132.654 133.09 132.191 132.596 131.723L133.261 130.949C133.743 131.406 134.243 131.857 134.748 132.291L134.121 133.098Z" fill="#E4E4E4"/>
<path d="M106.647 27.941L106.138 27.0461C106.708 26.6876 107.289 26.3326 107.864 25.9911L108.352 26.8992C107.784 27.2365 107.21 27.5869 106.647 27.941Z" fill="#E4E4E4"/>
<path d="M202.185 42.1844C201.334 41.1435 200.439 40.1167 199.525 39.133L200.235 38.4041C201.164 39.4039 202.073 40.4472 202.938 41.5051L202.185 42.1844ZM196.684 36.267C195.714 35.3495 194.702 34.451 193.675 33.5968L194.291 32.779C195.334 33.6469 196.363 34.5596 197.348 35.4919L196.684 36.267ZM190.512 31.1253C189.438 30.3333 188.334 29.5611 187.229 28.8305L187.757 27.9478C188.876 28.6877 189.995 29.4696 191.082 30.2718L190.512 31.1253ZM183.84 26.7142C182.699 26.0424 181.526 25.3924 180.353 24.7823L180.793 23.8477C181.981 24.4654 183.17 25.1238 184.325 25.8044L183.84 26.7142ZM111.837 24.9553L111.394 24.022C112.581 23.4002 113.799 22.8027 115.015 22.2459L115.411 23.202C114.211 23.7516 113.008 24.3415 111.837 24.9553L111.837 24.9553ZM176.776 23.0414C175.574 22.4955 174.344 21.9755 173.118 21.496L173.464 20.5186C174.706 21.0044 175.953 21.5311 177.17 22.084L176.776 23.0414ZM119.066 21.6435L118.717 20.6674C119.956 20.1774 121.226 19.7138 122.491 19.2898L122.793 20.2835C121.544 20.7021 120.29 21.1597 119.066 21.6435L119.066 21.6435ZM169.389 20.1506C168.141 19.7381 166.866 19.3541 165.599 19.0093L165.847 17.9997C167.131 18.3488 168.423 18.7379 169.687 19.1558L169.389 20.1506ZM126.58 19.1251L126.327 18.1165C127.608 17.7619 128.916 17.4366 130.215 17.1501L130.419 18.1706C129.136 18.4537 127.845 18.7749 126.58 19.1251L126.58 19.1251ZM161.757 18.0745C160.476 17.799 159.17 17.5547 157.875 17.3485L158.023 16.3175C159.336 16.5262 160.659 16.7737 161.956 17.0526L161.757 18.0745ZM134.299 17.4232L134.145 16.3928C135.454 16.1767 136.786 15.9929 138.106 15.8466L138.21 16.8837C136.907 17.0284 135.591 17.2098 134.299 17.4232V17.4232ZM153.962 16.833C152.661 16.6968 151.337 16.5945 150.029 16.5284L150.076 15.4869C151.402 15.5536 152.742 15.6573 154.06 15.7951L153.962 16.833ZM142.143 16.5543L142.089 15.513C143.414 15.4375 144.758 15.3971 146.082 15.3928L146.085 16.4358C144.777 16.44 143.451 16.4799 142.143 16.5543L142.143 16.5543Z" fill="#E4E4E4"/>
<path d="M205.825 47.1039C205.448 46.5412 205.059 45.9783 204.668 45.431L205.461 44.8043C205.859 45.3606 206.254 45.9326 206.637 46.5047L205.825 47.1039Z" fill="#E4E4E4"/>
<path d="M160.632 215.761C159.974 215.672 159.316 215.577 158.658 215.477L158.801 214.445C159.453 214.544 160.105 214.638 160.758 214.726L160.632 215.761Z" fill="#E4E4E4"/>
<path d="M154.642 214.792C153.314 214.541 151.971 214.263 150.651 213.966L150.859 212.946C152.168 213.241 153.5 213.517 154.818 213.765L154.642 214.792ZM146.688 212.999C145.375 212.655 144.053 212.282 142.758 211.893L143.031 210.89C144.316 211.276 145.627 211.646 146.929 211.988L146.688 212.999ZM138.867 210.648C137.58 210.211 136.285 209.747 135.017 209.266L135.354 208.285C136.611 208.761 137.895 209.223 139.172 209.656L138.867 210.648ZM131.214 207.749C129.962 207.224 128.699 206.668 127.462 206.098L127.861 205.143C129.088 205.709 130.34 206.26 131.582 206.781L131.214 207.749ZM123.765 204.315C122.547 203.702 121.323 203.059 120.127 202.403L120.586 201.478C121.772 202.128 122.986 202.766 124.194 203.375L123.765 204.315ZM116.552 200.364C115.381 199.669 114.201 198.941 113.045 198.201L113.561 197.31C114.708 198.045 115.879 198.767 117.04 199.456L116.552 200.364ZM109.607 195.916C108.479 195.139 107.348 194.33 106.244 193.513L106.815 192.661C107.91 193.471 109.033 194.273 110.152 195.044L109.607 195.916ZM102.955 190.991C101.876 190.131 100.802 189.236 99.7629 188.334L100.395 187.53C101.424 188.423 102.487 189.308 103.555 190.161L102.955 190.991ZM96.6777 185.54C95.6719 184.591 94.672 183.606 93.7057 182.614L94.3992 181.868C95.3557 182.85 96.3455 183.825 97.341 184.765L96.6777 185.54ZM90.8526 179.559C89.926 178.525 89.008 177.456 88.1241 176.382L88.8747 175.699C89.7495 176.762 90.6582 177.821 91.5753 178.845L90.8526 179.559ZM85.5251 173.086C84.6843 171.973 83.8551 170.826 83.0605 169.678L83.8632 169.064C84.6496 170.201 85.4702 171.335 86.3025 172.437L85.5251 173.086Z" fill="#E4E4E4"/>
<path d="M80.7228 166.145C80.3546 165.563 79.9924 164.977 79.6365 164.388L80.4742 163.829C80.8266 164.412 81.185 164.992 81.5494 165.568L80.7228 166.145Z" fill="#E4E4E4"/>
<path d="M293.016 45.1221L280.646 57.0893L290.476 39.7552C282.731 24.9956 270.065 12.2397 270.065 12.2397C270.065 12.2397 243.785 38.6985 243.785 59.4968C243.785 80.2951 255.551 87.5571 270.065 87.5571C284.578 87.5571 296.344 80.2951 296.344 59.4968C296.344 54.8675 295.04 49.958 293.016 45.1221Z" fill="#F2F2F2"/>
<path d="M277.465 57.7372V58.7624C277.407 70.6789 275.494 79.9766 271.742 86.5235C271.689 86.6199 271.631 86.7113 271.578 86.8077L271.157 86.5388L270.757 86.2748C274.92 79.2051 276.393 69.2121 276.446 58.8182C276.451 58.4832 276.455 58.1432 276.45 57.8032C276.436 53.403 276.18 48.9521 275.77 44.6281C275.741 44.2931 275.707 43.9531 275.673 43.613C275.103 37.9086 274.282 32.4578 273.442 27.7227C273.384 27.3877 273.321 27.0528 273.258 26.7229C271.805 18.7143 270.322 12.9134 269.984 11.6293C269.945 11.472 269.921 11.3857 269.916 11.3655L270.375 11.2284L270.38 11.2233L270.844 11.0863C270.848 11.1066 270.93 11.3959 271.066 11.9339C271.582 13.9436 272.925 19.3994 274.243 26.596C274.301 26.9208 274.364 27.2558 274.422 27.5907C275.108 31.4326 275.779 35.7262 276.31 40.2329C276.446 41.3647 276.566 42.4813 276.673 43.5826C276.711 43.9226 276.745 44.2626 276.774 44.5976C277.218 49.2719 277.449 53.6517 277.465 57.7372Z" fill="white"/>
<path d="M274.243 26.596C273.92 26.6417 273.591 26.6874 273.258 26.7229C272.353 26.8208 271.444 26.8699 270.534 26.8701C266.657 26.8755 262.829 25.9667 259.33 24.2107C259.127 24.4797 258.924 24.7487 258.717 25.0227C262.397 26.9106 266.439 27.8896 270.534 27.8851C271.506 27.8848 272.476 27.8306 273.442 27.7227C273.77 27.6872 274.099 27.6415 274.422 27.5908C277.093 27.1882 279.69 26.3616 282.125 25.1394C281.917 24.8603 281.715 24.5863 281.517 24.3173C279.212 25.4491 276.761 26.2169 274.243 26.596Z" fill="white"/>
<path d="M276.673 43.5826C276.34 43.6029 276.006 43.613 275.673 43.613C275.572 43.6181 275.465 43.6181 275.364 43.6181C271.163 43.6182 267.024 42.5507 263.301 40.5067C259.577 38.4627 256.379 35.5028 253.979 31.8793C253.786 32.1787 253.593 32.4781 253.405 32.7826C255.906 36.449 259.202 39.4363 263.021 41.4971C266.84 43.558 271.071 44.633 275.364 44.6332C275.499 44.6332 275.634 44.6332 275.77 44.6281C276.108 44.623 276.441 44.6128 276.774 44.5976C281.931 44.32 286.902 42.4876 291.093 39.3194C290.939 39.02 290.784 38.7206 290.625 38.4212C286.551 41.5317 281.702 43.3255 276.673 43.5826Z" fill="white"/>
<path d="M277.465 57.7372C277.127 57.7677 276.789 57.788 276.451 57.8032C276.088 57.8184 275.726 57.8286 275.364 57.8286C269.719 57.8217 264.228 55.8936 259.713 52.3328C255.198 48.772 251.902 43.7701 250.319 38.076C250.101 38.4871 249.884 38.8931 249.676 39.3042C251.46 44.9851 254.903 49.9306 259.514 53.4382C264.126 56.9459 269.671 58.8372 275.364 58.8436C275.726 58.8436 276.088 58.8385 276.446 58.8182C276.789 58.8081 277.127 58.7878 277.465 58.7624C284.293 58.201 290.663 54.9337 295.285 49.622C295.184 49.2465 295.068 48.876 294.952 48.5004C290.488 53.8519 284.215 57.1651 277.465 57.7372Z" fill="white"/>
<path d="M39.8223 53.4087L47.8903 68.9106L34.2536 54.7038C18.7552 59.0425 3.91992 68.884 3.91992 68.884C3.91992 68.884 22.0155 102.067 41.2225 107.084C60.4295 112.101 69.9737 101.853 73.4746 87.0511C76.9753 72.2494 73.1069 58.4986 53.8999 53.4819C49.6249 52.3653 44.7765 52.5108 39.8223 53.4087Z" fill="#F2F2F2"/>
<path d="M47.7213 72.3112L48.668 72.5585C59.6587 75.4919 67.7837 79.685 72.9246 85.0912C73.0009 85.1686 73.0712 85.2497 73.1475 85.3272L72.7977 85.6908L72.4573 86.0359C66.9327 80.0851 58.0596 76.1725 48.4738 73.6112C48.1656 73.5255 47.8527 73.4385 47.5376 73.3615C43.4706 72.3149 39.2985 71.5023 35.2063 70.878C34.8899 70.8267 34.5678 70.7792 34.2456 70.7317C28.8401 69.9369 23.6084 69.4594 19.0329 69.1743C18.7096 69.1526 18.3851 69.1358 18.0653 69.1203C10.3189 68.6711 4.60419 68.784 3.33687 68.819C3.18226 68.8205 3.09677 68.8243 3.07685 68.8243L3.06097 68.3234L3.05744 68.3172L3.04272 67.8113C3.06266 67.8113 3.34961 67.7974 3.87902 67.7892C5.85963 67.747 11.2218 67.6937 18.1858 68.085C18.4997 68.1042 18.8242 68.121 19.1475 68.1427C22.8609 68.37 26.9879 68.721 31.2779 69.2663C32.3557 69.4014 33.4159 69.5475 34.4586 69.7048C34.7819 69.7474 35.1041 69.795 35.4204 69.8462C39.8442 70.5205 43.9445 71.3422 47.7213 72.3112Z" fill="white"/>
<path d="M18.1857 68.0849C18.1499 68.426 18.1129 68.7719 18.0653 69.1203C17.9374 70.0668 17.7635 71.0058 17.5442 71.9337C16.614 75.889 14.8512 79.5746 12.3857 82.719C12.5852 82.9907 12.7847 83.2624 12.9877 83.5403C15.6188 80.2424 17.4979 76.3562 18.4816 72.1785C18.7156 71.188 18.8996 70.1852 19.0328 69.1743C19.0792 68.8308 19.1163 68.4849 19.1475 68.1426C19.4199 65.3216 19.2831 62.4734 18.7417 59.6955C18.4338 59.84 18.1318 59.9807 17.8357 60.1178C18.325 62.7409 18.443 65.4256 18.1857 68.0849Z" fill="white"/>
<path d="M34.4585 69.7048C34.3968 70.0495 34.3258 70.3918 34.2454 70.7317C34.2257 70.8363 34.2 70.9447 34.1756 71.0481C33.1623 75.3325 31.1782 79.2959 28.3925 82.6004C25.6067 85.9049 22.1019 88.4524 18.1768 90.0259C18.4067 90.2951 18.6366 90.5644 18.8724 90.8299C22.8616 89.1632 26.4155 86.5218 29.2397 83.1243C32.064 79.7268 34.0773 75.671 35.1129 71.2929C35.1456 71.155 35.1782 71.0171 35.2061 70.878C35.2829 70.532 35.3539 70.1897 35.4203 69.8462C36.4077 64.5205 35.9146 59.0085 33.9999 53.9695C33.6861 54.0549 33.3723 54.1403 33.0573 54.2306C34.9472 59.1355 35.4342 64.5133 34.4585 69.7048Z" fill="white"/>
<path d="M47.721 72.3112C47.6676 72.6633 47.6048 73.013 47.5374 73.3614C47.464 73.7345 47.386 74.1064 47.2987 74.4758C45.9308 80.2312 42.8256 85.3661 38.4483 89.1118C34.0709 92.8576 28.6567 95.0125 23.0164 95.254C23.3436 95.5748 23.6661 95.8943 23.9957 96.2053C29.6722 95.7559 35.0696 93.4382 39.4212 89.5813C43.7727 85.7245 46.8571 80.5247 48.2361 74.7206C48.3234 74.3512 48.4061 73.9806 48.4736 73.6112C48.5469 73.259 48.6097 72.9094 48.6678 72.5585C49.7964 65.4592 48.3156 58.1744 44.5252 52.1794C44.154 52.1922 43.7839 52.2211 43.4091 52.2487C47.2742 58.0925 48.8209 65.2889 47.721 72.3112Z" fill="white"/>
<path d="M62.4174 151.902L59.3945 148.668L63.101 142.712L69.4448 131.615C69.2375 131.137 69.1732 130.604 69.2604 130.087C69.3476 129.569 69.5822 129.092 69.9332 128.718C70.2841 128.344 70.7349 128.09 71.2258 127.991C71.7167 127.892 72.2247 127.952 72.6826 128.163C73.1404 128.374 73.5265 128.726 73.7899 129.173C74.0532 129.619 74.1813 130.139 74.1572 130.664C74.1332 131.189 73.9581 131.693 73.6551 132.111C73.3522 132.529 72.9357 132.841 72.4606 133.004L67.2244 144.851L62.4174 151.902Z" fill="#A0616A"/>
<path d="M59.0686 159.286C58.7137 159.864 58.208 160.322 57.612 160.605C57.0159 160.889 56.3548 160.986 55.7076 160.886C55.0915 160.809 54.5101 160.545 54.0347 160.127C53.5593 159.708 53.2107 159.152 53.0315 158.528C52.8996 158.085 52.8611 157.617 52.9189 157.157C52.9767 156.697 53.1293 156.256 53.3661 155.864C55.3883 152.281 59.118 147.55 59.1553 147.503L59.2147 147.428L65.5052 148.86L59.0686 159.286Z" fill="#9FC4E7"/>
<path d="M112.884 30.1643L112.144 30.4037L105.905 9.1059C104.947 5.8367 102.793 3.10122 99.9156 1.50126C97.0386 -0.0987041 93.6746 -0.432103 90.5637 0.574413H90.5636L47.6261 14.4666C46.0858 14.9649 44.6539 15.7773 43.4122 16.8572C42.1706 17.9371 41.1435 19.2634 40.3897 20.7604C39.6358 22.2575 39.1699 23.8959 39.0186 25.5821C38.8672 27.2684 39.0334 28.9694 39.5077 30.5882V30.5882L73.7388 147.429C74.6966 150.699 76.851 153.434 79.728 155.034C82.605 156.634 85.969 156.967 89.0799 155.961H89.0799L132.017 142.069C135.128 141.062 137.731 138.798 139.254 135.775C140.776 132.751 141.094 129.216 140.136 125.947V125.947L116.586 45.5638L117.326 45.3244L112.884 30.1643Z" fill="#3F3D56"/>
<path d="M91.9763 3.62824L86.3716 5.44162C86.8239 6.0223 87.1333 6.71096 87.2727 7.44693C87.4121 8.1829 87.3771 8.9436 87.1708 9.66201C86.9645 10.3804 86.5933 11.0345 86.0898 11.5666C85.5863 12.0988 84.9661 12.4926 84.2836 12.7134L59.6853 20.6721C59.0028 20.8928 58.2791 20.9338 57.578 20.7914C56.8769 20.649 56.2199 20.3276 55.6649 19.8556C55.1098 19.3835 54.6737 18.7752 54.3951 18.0843C54.1164 17.3934 54.0037 16.641 54.0669 15.8936L48.832 17.5873C46.5088 18.3389 44.5649 20.0296 43.4279 22.2875C42.291 24.5453 42.054 27.1853 42.7693 29.6267L76.9502 146.296C77.6655 148.738 79.2743 150.781 81.4229 151.976C83.5714 153.17 86.0836 153.419 88.4068 152.668H88.4068L131.551 138.709C133.874 137.957 135.818 136.266 136.955 134.008C138.092 131.751 138.329 129.111 137.614 126.669L103.433 9.99944C102.718 7.55804 101.109 5.51522 98.9602 4.32039C96.8117 3.12556 94.2995 2.87659 91.9763 3.62824Z" fill="white"/>
<path d="M265.689 258.351L164.965 220.302C162.579 219.397 160.632 217.535 159.55 215.123C158.469 212.711 158.342 209.947 159.198 207.437L211.705 53.9326C212.566 51.4248 214.338 49.3783 216.633 48.242C218.928 47.1056 221.558 46.9724 223.947 47.8714L324.671 85.9201C327.057 86.8248 329.005 88.6873 330.086 91.0989C331.167 93.5106 331.294 96.2746 330.439 98.7844L277.931 252.289C277.07 254.797 275.298 256.844 273.003 257.98C270.708 259.116 268.078 259.25 265.689 258.351Z" fill="#3F3D56"/>
<path d="M267.932 252.38L166.853 214.197C166.117 213.918 165.517 213.344 165.184 212.601C164.85 211.857 164.811 211.005 165.075 210.232L217.93 55.7103C218.196 54.9373 218.742 54.3064 219.45 53.9561C220.157 53.6058 220.968 53.5647 221.704 53.8419L322.783 92.0246C323.518 92.3034 324.119 92.8776 324.452 93.621C324.785 94.3644 324.824 95.2165 324.561 95.9901L271.705 250.512C271.44 251.285 270.894 251.916 270.186 252.266C269.479 252.616 268.668 252.657 267.932 252.38Z" fill="white"/>
<path d="M272.934 70.5045C273.384 70.5045 273.748 70.1215 273.748 69.649C273.748 69.1766 273.384 68.7936 272.934 68.7936C272.485 68.7936 272.12 69.1766 272.12 69.649C272.12 70.1215 272.485 70.5045 272.934 70.5045Z" fill="white"/>
<path d="M105.62 93.0327C114.204 84.0114 114.204 69.3849 105.62 60.3635C97.0353 51.3422 83.117 51.3422 74.5325 60.3635C65.9479 69.3849 65.9479 84.0114 74.5325 93.0327C83.117 102.054 97.0353 102.054 105.62 93.0327Z" fill="#9FC4E7"/>
<path d="M92.3777 87.7223L81.4973 79.9656L82.4474 78.4947L91.4551 84.9168L97.9655 63.5144L99.5759 64.0553L92.3777 87.7223Z" fill="white"/>
<path d="M264.584 171.783C275.457 160.357 275.457 141.831 264.584 130.405C253.711 118.979 236.082 118.979 225.209 130.405C214.336 141.831 214.336 160.357 225.209 171.783C236.082 183.209 253.711 183.209 264.584 171.783Z" fill="#9FC4E7"/>
<path d="M238.182 163.526L234.183 146.538L236.263 145.998L239.573 160.062L262.951 145.697L264.031 147.639L238.182 163.526Z" fill="white"/>
<path d="M64.1696 238.567H67.9283L69.7163 223.332L64.1689 223.333L64.1696 238.567Z" fill="#A0616A"/>
<path d="M63.2109 237.278L70.6129 237.278H70.6132C71.8643 237.278 73.064 237.8 73.9487 238.729C74.8333 239.659 75.3303 240.92 75.3304 242.235V242.396L63.2112 242.396L63.2109 237.278Z" fill="#2F2E41"/>
<path d="M34.9041 236.858L38.6204 237.448L42.5557 222.665L37.6839 221.794L34.9041 236.858Z" fill="#A0616A"/>
<path d="M34.1395 235.432L41.4584 236.594L41.4587 236.594C42.6956 236.791 43.8076 237.496 44.55 238.554C45.2925 239.612 45.6046 240.937 45.4176 242.237L45.3947 242.396L33.4116 240.493L34.1395 235.432Z" fill="#2F2E41"/>
<path d="M56.6732 166.746L65.4136 164.745L70.3159 179.472L70.4692 236.336L63.3346 236.289L60.3521 190.265L41.3444 232.792L33.6799 231.825L50.3884 186.237C50.3884 186.237 49.4686 178.183 52.3811 174.156L51.768 169.968L56.6732 166.746Z" fill="#2F2E41"/>
<path d="M48.468 155.918C48.2694 155.291 48.2482 154.617 48.4073 153.977C48.5663 153.338 48.8986 152.76 49.3639 152.315L51.2113 150.551L56.4197 149.629L59.6764 149.006L67.3985 169.265L52.1979 171.084C51.0822 170.831 50.6365 170.189 51.2857 168.914L48.468 155.918Z" fill="#9FC4E7"/>
<path d="M66.8729 152.563L66.438 148.053L72.8739 145.84L84.4269 141.347C84.5496 140.838 84.8165 140.379 85.1923 140.033C85.5681 139.687 86.0351 139.468 86.5316 139.407C87.0281 139.345 87.5306 139.444 87.9727 139.689C88.4148 139.934 88.7756 140.315 89.0075 140.78C89.2393 141.246 89.3312 141.774 89.271 142.296C89.2109 142.817 89.0015 143.307 88.6705 143.701C88.3396 144.095 87.9027 144.373 87.4176 144.501C86.9326 144.628 86.4222 144.597 85.9541 144.413L74.8192 150.219L66.8729 152.563Z" fill="#A0616A"/>
<path d="M59.866 156.126C59.2454 156.344 58.5783 156.369 57.9444 156.199C57.3105 156.029 56.7367 155.67 56.2916 155.166C55.8564 154.702 55.5597 154.114 55.4379 153.475C55.316 152.836 55.3742 152.173 55.6055 151.568C55.766 151.136 56.0144 150.746 56.3332 150.424C56.6521 150.103 57.0338 149.859 57.4517 149.709C61.1611 148.242 66.8868 146.999 66.9441 146.987L67.0351 146.967L71.0926 152.218L59.866 156.126Z" fill="#9FC4E7"/>
<path d="M54.1341 147.689C57.2916 147.689 59.8514 144.999 59.8514 141.681C59.8514 138.363 57.2916 135.673 54.1341 135.673C50.9765 135.673 48.4167 138.363 48.4167 141.681C48.4167 144.999 50.9765 147.689 54.1341 147.689Z" fill="#A0616A"/>
<path d="M49.5051 150.24C48.6185 150.24 47.7327 150.184 46.8527 150.071L46.732 150.055L45.8111 144.801C45.4205 142.574 45.856 140.274 47.0282 138.373C48.2003 136.473 50.0202 135.116 52.1144 134.581C52.2541 134.544 52.4009 134.548 52.5386 134.593C52.6763 134.638 52.7996 134.721 52.8949 134.835L53.1145 134.755C53.9555 134.447 54.8459 134.315 55.735 134.369C56.6241 134.422 57.4945 134.659 58.2965 135.066C59.0984 135.473 59.8163 136.042 60.409 136.741C61.0017 137.439 61.4576 138.254 61.7509 139.137L61.8053 139.302L60.3396 139.839C59.8829 140.006 59.4674 140.278 59.1234 140.636C58.7795 140.993 58.5156 141.426 58.351 141.904C58.1864 142.382 58.1253 142.893 58.1721 143.399C58.2189 143.904 58.3724 144.393 58.6214 144.829L60.12 147.45L59.9605 147.535C56.726 149.287 53.1441 150.214 49.5051 150.24Z" fill="#2F2E41"/>
<path d="M126.371 242.965H0.330813C0.243076 242.965 0.158932 242.929 0.0968926 242.864C0.0348531 242.798 0 242.71 0 242.618C0 242.526 0.0348531 242.437 0.0968926 242.372C0.158932 242.307 0.243076 242.27 0.330813 242.27H126.371C126.458 242.27 126.542 242.307 126.604 242.372C126.666 242.437 126.701 242.526 126.701 242.618C126.701 242.71 126.666 242.798 126.604 242.864C126.542 242.929 126.458 242.965 126.371 242.965Z" fill="#CACACA"/>
<path d="M349.669 260H223.629C223.542 260 223.458 259.963 223.395 259.898C223.333 259.833 223.299 259.745 223.299 259.652C223.299 259.56 223.333 259.472 223.395 259.407C223.458 259.341 223.542 259.305 223.629 259.305H349.669C349.757 259.305 349.841 259.341 349.903 259.407C349.965 259.472 350 259.56 350 259.652C350 259.745 349.965 259.833 349.903 259.898C349.841 259.963 349.757 260 349.669 260Z" fill="#CACACA"/>
<path d="M281.214 199.325C281.494 199.079 281.718 198.772 281.873 198.425C282.027 198.078 282.107 197.699 282.107 197.316C282.107 196.933 282.027 196.555 281.872 196.208C281.718 195.861 281.493 195.553 281.214 195.307L279.36 161.022L274.071 162.279L277.567 195.763C277.205 196.284 277.038 196.926 277.096 197.568C277.155 198.21 277.435 198.807 277.885 199.246C278.335 199.686 278.922 199.936 279.535 199.951C280.149 199.965 280.746 199.743 281.214 199.325H281.214Z" fill="#9F616A"/>
<path d="M302.691 203.79C302.404 203.555 302.168 203.256 302.002 202.915C301.836 202.574 301.744 202.199 301.73 201.816C301.717 201.433 301.784 201.052 301.926 200.699C302.069 200.347 302.283 200.031 302.553 199.774L303.225 165.441L308.554 166.496L306.213 200.091C306.593 200.598 306.782 201.233 306.746 201.877C306.71 202.521 306.45 203.128 306.016 203.584C305.582 204.04 305.003 204.313 304.391 204.351C303.778 204.389 303.173 204.189 302.691 203.79Z" fill="#9F616A"/>
<path d="M305.511 254.816L309.661 254.816L310.844 244.643L305.51 244.643L305.511 254.816Z" fill="#9F616A"/>
<path d="M304.453 253.392L312.625 253.392H312.625C314.007 253.392 315.331 253.969 316.308 254.995C317.285 256.022 317.834 257.414 317.834 258.865V259.043L304.453 259.044L304.453 253.392Z" fill="#2F2E41"/>
<path d="M279.616 254.816L283.766 254.816L284.95 237.995H279.616L279.616 254.816Z" fill="#9F616A"/>
<path d="M278.558 253.392L286.73 253.392H286.731C288.112 253.392 289.437 253.969 290.413 254.995C291.39 256.022 291.939 257.414 291.939 258.865V259.043L278.558 259.044L278.558 253.392Z" fill="#2F2E41"/>
<path d="M296.333 146.231C300.082 146.231 303.122 143.036 303.122 139.096C303.122 135.156 300.082 131.961 296.333 131.961C292.583 131.961 289.544 135.156 289.544 139.096C289.544 143.036 292.583 146.231 296.333 146.231Z" fill="#9F616A"/>
<path d="M304.962 155.559C304.962 155.559 307.979 155.824 308.231 157.409C308.482 158.995 308.231 163.751 308.231 163.751C308.231 163.751 310.242 170.093 308.231 171.678C306.219 173.264 300.938 173.528 300.938 173.528L304.962 155.559Z" fill="#E4E4E4"/>
<path d="M279.314 191.497L276.548 196.253C276.548 196.253 277.553 217.129 277.805 217.657C278.005 217.967 278.094 218.342 278.056 218.714V221.621L278.811 246.988C278.811 246.988 276.799 248.045 279.314 248.838C281.828 249.631 285.097 249.895 285.6 247.253C286.103 244.61 286.127 222.596 286.103 221.885L286.354 220.828L290.377 205.238L299.681 226.906L305.213 251.216C305.213 251.216 313.585 252.232 312.077 248.797C310.568 245.362 306.973 219.771 306.973 219.771C306.973 219.771 306.219 217.129 306.219 216.6C306.219 216.072 305.967 215.807 305.967 215.279C305.967 214.75 305.716 213.165 305.716 213.165L303.956 196.517L279.314 191.497Z" fill="#2F2E41"/>
<path d="M281.828 151.067C281.828 151.067 278.811 150.803 278.056 153.445C277.302 156.088 271.016 166.129 272.273 167.186C273.53 168.243 283.086 171.943 283.337 171.678C283.588 171.414 281.828 151.067 281.828 151.067Z" fill="#E4E4E4"/>
<path d="M304.239 134.546C303.954 133.432 303.553 132.318 302.734 131.548C301.905 130.773 300.842 130.333 299.733 130.305C298.468 129.535 297.048 129.088 295.588 129.001C294.127 128.914 292.668 129.189 291.328 129.805C291.183 129.497 290.949 129.246 290.659 129.087C290.578 129.821 290.497 130.555 290.417 131.289C290.105 131.042 289.793 130.795 289.481 130.549C289.466 130.983 289.45 131.417 289.435 131.851C289.149 131.593 288.863 131.335 288.577 131.077C288.516 132.615 289.734 133.946 291.111 134.47C292.489 134.995 293.999 134.898 295.462 134.825C296.184 134.789 297.007 134.802 297.495 135.364C298.005 135.952 297.909 136.853 297.922 137.65C297.939 138.769 299.033 138.221 299.582 139.181C299.818 139.499 299.965 139.88 300.007 140.281C299.956 140.645 299.83 140.992 299.639 141.301C299.235 142.177 298.432 144.905 298.816 145.792C299.525 145.374 300.235 144.957 300.944 144.54C300.944 144.54 305.618 139.942 304.239 134.546Z" fill="#2F2E41"/>
<path d="M302.95 170.886C302.95 170.886 307.979 157.409 307.728 156.352C307.476 155.295 301.202 150.958 301.202 150.958C300.963 150.927 300.736 150.897 300.507 150.867C300.542 150.773 300.565 150.676 300.576 150.577L300.684 149.543C300.718 149.221 300.629 148.9 300.436 148.648C300.244 148.396 299.964 148.234 299.658 148.199L291.686 147.281C291.38 147.245 291.074 147.339 290.834 147.541C290.595 147.744 290.441 148.038 290.408 148.359L290.314 149.253C289.894 149.144 289.874 149.101 289.874 149.101C289.874 149.101 282.834 150.274 281.074 150.803C279.314 151.331 280.822 171.414 280.822 171.414C280.822 171.414 279.565 189.911 278.811 190.44C278.056 190.968 278.811 190.704 278.056 192.818C277.957 193.097 279.346 191.54 279.942 191.893C283.866 194.218 299.775 199.654 303.704 199.424C304.96 185.647 302.447 181.191 302.447 181.191L302.95 170.886Z" fill="#E4E4E4"/>
</svg>
