<svg width="35" height="35" viewBox="0 0 35 35" fill="none" xmlns="http://www.w3.org/2000/svg">
<g filter="url(#filter0_i_373:1516)">
<path d="M20.1542 32.0834H14.8459C14.1606 32.0834 13.5677 31.6065 13.4211 30.9371L12.8275 28.1896C12.0357 27.8427 11.2849 27.4088 10.589 26.8961L7.91002 27.7492C7.25669 27.9575 6.54646 27.6825 6.20377 27.0886L3.54377 22.4934C3.20484 21.8991 3.32161 21.1495 3.82523 20.6865L5.90336 18.7906C5.80885 17.9319 5.80885 17.0653 5.90336 16.2065L3.82523 14.315C3.32087 13.8518 3.20405 13.1013 3.54377 12.5067L6.19794 7.90856C6.54063 7.31458 7.25086 7.03959 7.90419 7.24794L10.5831 8.10106C10.9391 7.83733 11.3096 7.59389 11.6929 7.3719C12.0609 7.16437 12.4397 6.97646 12.8275 6.80898L13.4225 4.0644C13.5685 3.39497 14.1607 2.91741 14.8459 2.91669H20.1542C20.8393 2.91741 21.4316 3.39497 21.5775 4.0644L22.1784 6.81044C22.5878 6.99057 22.9866 7.1941 23.3727 7.42002C23.7328 7.62829 24.081 7.85664 24.4154 8.10398L27.0959 7.25085C27.7488 7.04329 28.4581 7.31817 28.8006 7.91148L31.4548 12.5096C31.7938 13.1039 31.677 13.8535 31.1734 14.3165L29.0952 16.2123C29.1897 17.0711 29.1897 17.9377 29.0952 18.7965L31.1734 20.6923C31.677 21.1553 31.7938 21.9049 31.4548 22.4992L28.8006 27.0973C28.4581 27.6906 27.7488 27.9655 27.0959 27.7579L24.4154 26.9048C24.0763 27.1546 23.7238 27.3859 23.3596 27.5975C22.9773 27.8191 22.5829 28.0192 22.1784 28.1969L21.5775 30.9371C21.431 31.6059 20.8389 32.0828 20.1542 32.0834ZM11.1125 23.6673L12.3084 24.5423C12.5779 24.7409 12.8589 24.9235 13.1498 25.0892C13.4235 25.2477 13.7054 25.3918 13.9942 25.5209L15.3548 26.1173L16.0213 29.1667H18.9817L19.6481 26.1159L21.0088 25.5194C21.6028 25.2575 22.1665 24.9318 22.6902 24.5481L23.8875 23.6731L26.864 24.6211L28.3442 22.0573L26.0356 19.9529L26.199 18.4771C26.2707 17.8316 26.2707 17.1801 26.199 16.5346L26.0356 15.0588L28.3456 12.95L26.864 10.3848L23.8875 11.3327L22.6902 10.4577C22.1664 10.0723 21.6027 9.74425 21.0088 9.47919L19.6481 8.88273L18.9817 5.83335H16.0213L15.3519 8.88419L13.9942 9.47919C13.7052 9.60613 13.4233 9.74877 13.1498 9.90648C12.8607 10.0718 12.5812 10.2534 12.3127 10.4504L11.1154 11.3254L8.14044 10.3775L6.65732 12.95L8.96586 15.0515L8.80252 16.5288C8.73078 17.1743 8.73078 17.8258 8.80252 18.4713L8.96586 19.9471L6.65732 22.0515L8.13752 24.6152L11.1125 23.6673ZM17.4942 23.3334C14.2725 23.3334 11.6609 20.7217 11.6609 17.5C11.6609 14.2784 14.2725 11.6667 17.4942 11.6667C20.7159 11.6667 23.3275 14.2784 23.3275 17.5C23.3235 20.72 20.7142 23.3293 17.4942 23.3334ZM17.4942 14.5834C15.9008 14.585 14.6036 15.865 14.5808 17.4582C14.5579 19.0514 15.8179 20.3681 17.4106 20.4154C19.0033 20.4627 20.3392 19.223 20.4109 17.6313V18.2146V17.5C20.4109 15.8892 19.105 14.5834 17.4942 14.5834Z" fill="#ECE776"/>
</g>
<defs>
<filter id="filter0_i_373:1516" x="0" y="0" width="35" height="39" filterUnits="userSpaceOnUse" color-interpolation-filters="sRGB">
<feFlood flood-opacity="0" result="BackgroundImageFix"/>
<feBlend mode="normal" in="SourceGraphic" in2="BackgroundImageFix" result="shape"/>
<feColorMatrix in="SourceAlpha" type="matrix" values="0 0 0 0 0 0 0 0 0 0 0 0 0 0 0 0 0 0 127 0" result="hardAlpha"/>
<feOffset dy="4"/>
<feGaussianBlur stdDeviation="2"/>
<feComposite in2="hardAlpha" operator="arithmetic" k2="-1" k3="1"/>
<feColorMatrix type="matrix" values="0 0 0 0 0.952941 0 0 0 0 0.921569 0 0 0 0 0.168627 0 0 0 1 0"/>
<feBlend mode="normal" in2="shape" result="effect1_innerShadow_373:1516"/>
</filter>
</defs>
</svg>
