<svg width="140" height="142" viewBox="0 0 140 142" fill="none" xmlns="http://www.w3.org/2000/svg">
<path d="M84.6025 122.277C74.1549 124.833 63.1683 124.044 53.1931 120.021C43.2179 115.998 34.7578 108.945 29.0067 99.8555C23.2555 90.7664 20.5036 80.1008 21.1394 69.3637C21.7751 58.6267 25.7664 48.3604 32.55 40.0135C39.3336 31.6665 48.567 25.6605 58.9472 22.8428C69.3274 20.0252 80.3304 20.5382 90.4034 24.3095C100.476 28.0808 109.111 34.92 115.088 43.8619" stroke="#DDFCD3" stroke-width="25"/>
<path d="M91.7377 27.2914C100.7 31.4707 108.222 38.2138 113.352 46.6681C118.483 55.1224 120.991 64.9081 120.559 74.7878C120.128 84.6674 116.777 94.1973 110.929 102.172C105.082 110.147 97.0005 116.209 87.7078 119.591C78.4151 122.974 68.3282 123.524 58.7225 121.174C49.1169 118.823 40.4239 113.677 33.7429 106.386C27.062 99.0953 22.6931 89.9869 21.1887 80.213C19.6844 70.439 21.1121 60.4384 25.2914 51.4759" stroke="#BBFDA5" stroke-width="38"/>
</svg>
