<svg width="249" height="243" viewBox="0 0 249 243" fill="none" xmlns="http://www.w3.org/2000/svg">
<g opacity="0.6">
<path d="M158.074 54.8192H90.9788C89.4498 54.8211 87.984 55.426 86.9029 56.5014C85.8217 57.5767 85.2135 59.0347 85.2116 60.5554V208.874L84.4427 209.108L67.9831 214.121C67.203 214.358 66.3605 214.277 65.6404 213.896C64.9203 213.515 64.3815 212.866 64.1423 212.09L15.1826 53.0257C14.9443 52.2498 15.0255 51.4116 15.4083 50.6953C15.7912 49.9789 16.4443 49.443 17.2242 49.2054L42.5883 41.4807L116.12 19.0942L141.484 11.3695C141.87 11.2513 142.276 11.21 142.678 11.248C143.08 11.2859 143.47 11.4023 143.827 11.5906C144.184 11.7789 144.5 12.0352 144.757 12.3451C145.014 12.6549 145.207 13.0121 145.325 13.3963L157.84 54.0544L158.074 54.8192Z" fill="#F2F2F2"/>
<path d="M172.716 54.0549L157.633 5.05252C157.382 4.23605 156.972 3.47676 156.425 2.81804C155.879 2.15933 155.208 1.61409 154.45 1.2135C153.692 0.812906 152.862 0.564798 152.008 0.483364C151.153 0.40193 150.291 0.488764 149.47 0.738897L113.81 11.5956L40.2821 33.9859L4.62168 44.8464C2.96509 45.3524 1.578 46.4914 0.764877 48.0135C-0.0482431 49.5356 -0.220961 51.3164 0.284641 52.9651L51.8356 220.435C52.2464 221.766 53.0751 222.931 54.2003 223.759C55.3254 224.587 56.6878 225.034 58.0874 225.036C58.7351 225.036 59.3793 224.939 59.9981 224.749L84.4433 217.307L85.2123 217.07V216.271L84.4433 216.504L59.7713 224.018C58.3091 224.462 56.7297 224.31 55.3797 223.597C54.0297 222.884 53.0193 221.667 52.57 220.213L1.023 52.7394C0.80042 52.0193 0.722846 51.2626 0.794715 50.5126C0.866583 49.7626 1.08648 49.0341 1.44182 48.3688C1.79716 47.7035 2.28098 47.1144 2.86554 46.6353C3.4501 46.1562 4.12393 45.7965 4.84845 45.5768L40.5089 34.7163L114.037 12.3298L149.697 1.46931C150.247 1.3025 150.818 1.21745 151.393 1.21692C152.626 1.21967 153.826 1.61507 154.816 2.3452C155.807 3.07533 156.537 4.10182 156.898 5.27432L171.912 54.0549L172.151 54.8198H172.95L172.716 54.0549Z" fill="#3F3D56"/>
<path d="M47.1658 49.3305C46.4247 49.33 45.7034 49.0933 45.1075 48.6551C44.5116 48.2169 44.0726 47.6003 43.8549 46.8958L38.9027 30.807C38.7696 30.3748 38.7234 29.9208 38.7668 29.4709C38.8101 29.021 38.9422 28.5839 39.1554 28.1848C39.3686 27.7856 39.6587 27.4322 40.0093 27.1445C40.3598 26.8569 40.7639 26.6408 41.1985 26.5086L108.843 5.91038C109.721 5.64404 110.669 5.73488 111.479 6.16295C112.289 6.59102 112.896 7.32135 113.165 8.19365L118.117 24.2826C118.385 25.1554 118.294 26.0982 117.863 26.9041C117.433 27.7099 116.699 28.3131 115.822 28.5812L48.1767 49.1794C47.8491 49.2794 47.5084 49.3303 47.1658 49.3305Z" fill="#FFB1C5"/>
<path d="M73.1073 17.6414C77.3541 17.6414 80.7969 14.2171 80.7969 9.9931C80.7969 5.76909 77.3541 2.34485 73.1073 2.34485C68.8605 2.34485 65.4177 5.76909 65.4177 9.9931C65.4177 14.2171 68.8605 17.6414 73.1073 17.6414Z" fill="#FFB1C5"/>
<path d="M73.1073 14.8363C75.7966 14.8363 77.9766 12.6679 77.9766 9.99312C77.9766 7.31832 75.7966 5.14996 73.1073 5.14996C70.4181 5.14996 68.238 7.31832 68.238 9.99312C68.238 12.6679 70.4181 14.8363 73.1073 14.8363Z" fill="white"/>
<path d="M231.699 223.081H101.745C100.878 223.08 100.048 222.737 99.4349 222.128C98.8222 221.518 98.4776 220.692 98.4766 219.83V64.9531C98.4775 64.0914 98.8222 63.2651 99.4348 62.6558C100.047 62.0464 100.878 61.7036 101.745 61.7026H231.699C232.565 61.7036 233.396 62.0464 234.008 62.6558C234.621 63.2652 234.966 64.0914 234.967 64.9531V219.83C234.966 220.692 234.621 221.518 234.008 222.128C233.396 222.737 232.565 223.08 231.699 223.081Z" fill="#E6E6E6"/>
<path d="M171.912 54.0544H90.979C89.2463 54.0569 87.5852 54.7426 86.36 55.9612C85.1347 57.1799 84.4453 58.832 84.4429 60.5555V216.503L85.2118 216.27V60.5555C85.2137 59.0347 85.8219 57.5768 86.9031 56.5014C87.9842 55.4261 89.45 54.8211 90.979 54.8193H172.15L171.912 54.0544ZM242.464 54.0544H90.979C89.2463 54.0569 87.5852 54.7426 86.36 55.9612C85.1347 57.1799 84.4453 58.832 84.4429 60.5555V235.701C84.4453 237.424 85.1347 239.076 86.36 240.295C87.5852 241.514 89.2463 242.199 90.979 242.202H242.464C244.197 242.199 245.858 241.514 247.083 240.295C248.308 239.076 248.997 237.424 249 235.701V60.5555C248.997 58.832 248.308 57.1799 247.083 55.9612C245.858 54.7426 244.197 54.0569 242.464 54.0544ZM248.231 235.701C248.229 237.221 247.621 238.679 246.54 239.755C245.459 240.83 243.993 241.435 242.464 241.437H90.979C89.45 241.435 87.9842 240.83 86.9031 239.755C85.8219 238.679 85.2137 237.221 85.2118 235.701V60.5555C85.2137 59.0347 85.8219 57.5768 86.9031 56.5014C87.9842 55.4261 89.45 54.8211 90.979 54.8193H242.464C243.993 54.8211 245.459 55.4261 246.54 56.5014C247.621 57.5768 248.229 59.0347 248.231 60.5555V235.701Z" fill="#3F3D56"/>
<path d="M202.094 70.8806H131.35C130.432 70.8796 129.553 70.5166 128.904 69.8714C128.255 69.2262 127.89 68.3513 127.889 67.4389V50.6127C127.89 49.7002 128.255 48.8254 128.904 48.1802C129.553 47.5349 130.432 47.172 131.35 47.171H202.094C203.011 47.172 203.891 47.5349 204.54 48.1802C205.188 48.8254 205.553 49.7002 205.554 50.6127V67.4389C205.553 68.3513 205.188 69.2262 204.54 69.8714C203.891 70.5166 203.011 70.8796 202.094 70.8806Z" fill="#FFB1C5"/>
<path d="M166.721 48.3183C170.968 48.3183 174.411 44.894 174.411 40.67C174.411 36.446 170.968 33.0217 166.721 33.0217C162.474 33.0217 159.032 36.446 159.032 40.67C159.032 44.894 162.474 48.3183 166.721 48.3183Z" fill="#FFB1C5"/>
<path d="M166.721 45.3285C169.308 45.3285 171.405 43.2428 171.405 40.67C171.405 38.0972 169.308 36.0115 166.721 36.0115C164.135 36.0115 162.038 38.0972 162.038 40.67C162.038 43.2428 164.135 45.3285 166.721 45.3285Z" fill="white"/>
</g>
</svg>
