<svg width="680" height="151" viewBox="0 0 680 151" fill="none" xmlns="http://www.w3.org/2000/svg">
<g filter="url(#filter0_d)">
<g filter="url(#filter1_d)">
<path d="M41.4698 31.6407C62.1392 22.6176 88.4578 26.9329 113.107 31.6407C119.27 31.6407 126.973 31.2372 136.217 29.6231C145.46 28.0089 152.393 31.6407 154.704 33.6583C157.015 35.6759 157.015 38.0971 157.015 47.7817C157.015 57.4664 187.057 51.817 203.233 51.817H279.493C292.588 51.817 321.398 53.8347 332.644 53.8347C351.131 53.8347 348.29 52.9029 355.753 51.817C369.619 49.7994 388.105 45.7641 401.971 47.7818C415.836 49.7994 420.459 63.9228 427.391 74.011C434.324 84.0991 438.946 74.011 452.811 74.011C467.426 74.011 456.705 57.8699 462.055 45.7641C468.297 31.6407 499.029 25.5878 529.071 27.6054C553.104 29.2195 566.816 40.3838 570.667 45.7641C579.911 53.8347 596.088 53.8346 612.264 51.817C628.44 49.7994 630.752 49.7994 637.684 51.817C651.549 55.8523 649.238 61.2327 649.238 67.9581C649.238 76.7012 649.7 94.9944 651.549 106.293C653.397 117.592 644.616 124.452 639.994 126.469C621.508 130.505 592.472 135.505 568.357 128.487C561.424 126.469 561.425 118.399 547.559 124.452C535.506 129.713 508.274 134.54 485.164 128.487C463.03 122.69 487.474 120.417 452.811 114.364C418.147 108.311 445.878 116.381 413.525 126.469C381.173 136.558 360.375 126.469 355.753 124.452C351.131 122.434 334.955 120.417 321.089 124.452C307.224 128.487 270.249 122.434 270.249 128.487C270.249 133.329 225.572 129.16 203.233 126.469H163.947L113.107 124.452H73.822C67.6596 123.779 77.982 124.452 48.4024 124.452C18.8227 124.452 24.9059 106.293 31.8387 86.1168C31.8387 76.0286 23.5596 66.9637 25.2934 57.8699C27.2169 47.7818 32.2261 35.676 41.4698 31.6407Z" fill="#F6DFE5"/>
<path d="M41.4698 31.6407C62.1392 22.6176 88.4578 26.9329 113.107 31.6407C119.27 31.6407 126.973 31.2372 136.217 29.6231C145.46 28.0089 152.393 31.6407 154.704 33.6583C157.015 35.6759 157.015 38.0971 157.015 47.7817C157.015 57.4664 187.057 51.817 203.233 51.817H279.493C292.588 51.817 321.398 53.8347 332.644 53.8347C351.131 53.8347 348.29 52.9029 355.753 51.817C369.619 49.7994 388.105 45.7641 401.971 47.7818C415.836 49.7994 420.459 63.9228 427.391 74.011C434.324 84.0991 438.946 74.011 452.811 74.011C467.426 74.011 456.705 57.8699 462.055 45.7641C468.297 31.6407 499.029 25.5878 529.071 27.6054C553.104 29.2195 566.816 40.3838 570.667 45.7641C579.911 53.8347 596.088 53.8346 612.264 51.817C628.44 49.7994 630.752 49.7994 637.684 51.817C651.549 55.8523 649.238 61.2327 649.238 67.9581C649.238 76.7012 649.7 94.9944 651.549 106.293C653.397 117.592 644.616 124.452 639.994 126.469C621.508 130.505 592.472 135.505 568.357 128.487C561.424 126.469 561.425 118.399 547.559 124.452C535.506 129.713 508.274 134.54 485.164 128.487C463.03 122.69 487.474 120.417 452.811 114.364C418.147 108.311 445.878 116.381 413.525 126.469C381.173 136.558 360.375 126.469 355.753 124.452C351.131 122.434 334.955 120.417 321.089 124.452C307.224 128.487 270.249 122.434 270.249 128.487C270.249 133.329 225.572 129.16 203.233 126.469H163.947L113.107 124.452H73.822C67.6596 123.779 77.982 124.452 48.4024 124.452C18.8227 124.452 24.9059 106.293 31.8387 86.1168C31.8387 76.0286 23.5596 66.9637 25.2934 57.8699C27.2169 47.7818 32.2261 35.676 41.4698 31.6407Z" stroke="#F6DFE5" stroke-width="10"/>
</g>
<path d="M77.5281 125.68C69.8481 125.68 62.5681 125.04 55.6881 123.76C48.8881 122.4 43.6481 120.88 39.9681 119.2V95.44H66.3681C66.3681 97.92 66.9281 99.72 68.0481 100.84C69.1681 101.96 71.2081 102.52 74.1681 102.52C76.6481 102.52 78.4081 102.16 79.4481 101.44C80.5681 100.64 81.1281 99.48 81.1281 97.96C81.1281 96.68 80.6081 95.6 79.5681 94.72C78.5281 93.76 76.7281 92.8 74.1681 91.84L63.8481 88.24C54.9681 84.88 48.5681 80.92 44.6481 76.36C40.8081 71.8 38.8881 65.64 38.8881 57.88C38.8881 48.44 41.9681 41.28 48.1281 36.4C54.3681 31.44 64.7281 28.96 79.2081 28.96C86.1681 28.96 92.6881 29.68 98.7681 31.12C104.928 32.48 109.888 34.32 113.648 36.64V58.12H89.6481C89.6481 54.12 87.1681 52.12 82.2081 52.12C79.8081 52.12 78.0881 52.44 77.0481 53.08C76.0881 53.64 75.6081 54.68 75.6081 56.2C75.6081 57.56 76.1681 58.64 77.2881 59.44C78.4881 60.24 80.4081 61.08 83.0481 61.96L93.4881 65.56C101.968 68.44 108.128 72.2 111.968 76.84C115.888 81.4 117.848 87.4 117.848 94.84C117.848 105 114.408 112.68 107.528 117.88C100.728 123.08 90.7281 125.68 77.5281 125.68ZM203.028 104.32V124H165.108V104.32H170.148V84.64C170.148 82 169.588 80.08 168.468 78.88C167.348 77.6 165.668 76.96 163.428 76.96C158.628 76.96 156.228 79.52 156.228 84.64V104.32H161.268V124H123.348V104.32H128.628V50.32H123.348V30.64H156.228V66.64C159.188 62.96 162.388 60.2 165.828 58.36C169.268 56.52 173.268 55.6 177.828 55.6C184.468 55.6 189.428 57.68 192.708 61.84C196.068 66 197.748 71.72 197.748 79V104.32H203.028ZM279.262 104.32V124H247.582V115.84C245.822 118.4 243.342 120.68 240.142 122.68C237.022 124.68 233.182 125.68 228.622 125.68C222.622 125.68 217.902 124.08 214.462 120.88C211.022 117.68 209.302 113.16 209.302 107.32C209.302 92.2 222.142 84.44 247.822 84.04C247.582 81.32 246.542 79.48 244.702 78.52C242.862 77.48 239.742 76.96 235.342 76.96C231.742 76.96 227.862 77.36 223.702 78.16C219.622 78.88 215.862 79.88 212.422 81.16V59.08C216.662 58.04 221.262 57.2 226.222 56.56C231.182 55.92 236.022 55.6 240.742 55.6C252.662 55.6 261.182 57.76 266.302 62.08C271.422 66.4 273.982 73.08 273.982 82.12V104.32H279.262ZM247.582 95.92C243.982 95.92 241.182 96.4 239.182 97.36C237.262 98.32 236.302 99.92 236.302 102.16C236.302 103.52 236.702 104.64 237.502 105.52C238.382 106.32 239.582 106.72 241.102 106.72C243.182 106.72 244.782 105.84 245.902 104.08C247.022 102.32 247.582 99.84 247.582 96.64V95.92ZM336.77 55.6C338.37 55.6 339.89 55.76 341.33 56.08C342.77 56.4 343.97 56.8 344.93 57.28V80.2C341.65 78.84 338.13 78.16 334.37 78.16C329.33 78.16 325.45 79.48 322.73 82.12C320.01 84.76 318.65 88.68 318.65 93.88V104.32H329.45V124H285.77V104.32H291.05V76.96H285.77V57.28H318.65V66.04C320.89 62.68 323.45 60.12 326.33 58.36C329.21 56.52 332.69 55.6 336.77 55.6ZM386.972 125.68C375.612 125.68 366.732 122.72 360.332 116.8C353.932 110.8 350.732 102.08 350.732 90.64C350.732 79.2 353.932 70.52 360.332 64.6C366.732 58.6 375.612 55.6 386.972 55.6C398.252 55.6 406.372 58.56 411.332 64.48C416.372 70.32 418.892 77.6 418.892 86.32V94.96H380.012V95.68C380.012 98.64 380.892 100.84 382.652 102.28C384.412 103.64 387.332 104.32 391.412 104.32C396.292 104.32 400.932 103.96 405.332 103.24C409.732 102.52 413.572 101.6 416.852 100.48V119.68C414.052 121.2 409.932 122.6 404.492 123.88C399.132 125.08 393.292 125.68 386.972 125.68ZM393.932 81.76V80.32C393.932 77.6 393.332 75.64 392.132 74.44C391.012 73.24 389.292 72.64 386.972 72.64C384.652 72.64 382.892 73.28 381.692 74.56C380.572 75.76 380.012 77.68 380.012 80.32V81.76H393.932ZM508.598 125.68C493.958 125.68 482.638 121.84 474.638 114.16C466.718 106.48 462.758 94.2 462.758 77.32C462.758 60.44 466.718 48.16 474.638 40.48C482.638 32.8 493.958 28.96 508.598 28.96C523.238 28.96 534.518 32.8 542.438 40.48C550.438 48.16 554.438 60.44 554.438 77.32C554.438 94.2 550.438 106.48 542.438 114.16C534.518 121.84 523.238 125.68 508.598 125.68ZM508.598 104.32C511.318 104.32 513.358 103.6 514.718 102.16C516.078 100.72 516.758 98.48 516.758 95.44V59.2C516.758 56.16 516.078 53.92 514.718 52.48C513.358 51.04 511.318 50.32 508.598 50.32C505.878 50.32 503.838 51.04 502.478 52.48C501.118 53.92 500.438 56.16 500.438 59.2V95.44C500.438 98.56 501.118 100.84 502.478 102.28C503.838 103.64 505.878 104.32 508.598 104.32ZM640.357 104.32V124H602.437V104.32H607.477V84.64C607.477 82 606.917 80.08 605.797 78.88C604.677 77.6 602.997 76.96 600.757 76.96C595.957 76.96 593.557 79.52 593.557 84.64V104.32H598.597V124H560.677V104.32H565.957V76.96H560.677V57.28H593.557V66.64C599.317 59.28 606.517 55.6 615.157 55.6C621.797 55.6 626.757 57.68 630.037 61.84C633.397 66 635.077 71.72 635.077 79V104.32H640.357Z" fill="#F15A82"/>
</g>
<defs>
<filter id="filter0_d" x="16.0576" y="21.3701" width="644.744" height="123.628" filterUnits="userSpaceOnUse" color-interpolation-filters="sRGB">
<feFlood flood-opacity="0" result="BackgroundImageFix"/>
<feColorMatrix in="SourceAlpha" type="matrix" values="0 0 0 0 0 0 0 0 0 0 0 0 0 0 0 0 0 0 127 0" result="hardAlpha"/>
<feOffset dy="4"/>
<feGaussianBlur stdDeviation="2"/>
<feComposite in2="hardAlpha" operator="out"/>
<feColorMatrix type="matrix" values="0 0 0 0 0 0 0 0 0 0 0 0 0 0 0 0 0 0 0.25 0"/>
<feBlend mode="normal" in2="BackgroundImageFix" result="effect1_dropShadow"/>
<feBlend mode="normal" in="SourceGraphic" in2="effect1_dropShadow" result="shape"/>
</filter>
<filter id="filter1_d" x="14.0576" y="15.3701" width="656.744" height="135.628" filterUnits="userSpaceOnUse" color-interpolation-filters="sRGB">
<feFlood flood-opacity="0" result="BackgroundImageFix"/>
<feColorMatrix in="SourceAlpha" type="matrix" values="0 0 0 0 0 0 0 0 0 0 0 0 0 0 0 0 0 0 127 0" result="hardAlpha"/>
<feOffset dx="4" dy="4"/>
<feGaussianBlur stdDeviation="5"/>
<feComposite in2="hardAlpha" operator="out"/>
<feColorMatrix type="matrix" values="0 0 0 0 0 0 0 0 0 0 0 0 0 0 0 0 0 0 0.25 0"/>
<feBlend mode="normal" in2="BackgroundImageFix" result="effect1_dropShadow"/>
<feBlend mode="normal" in="SourceGraphic" in2="effect1_dropShadow" result="shape"/>
</filter>
</defs>
</svg>
