<svg width="67" height="67" viewBox="0 0 67 67" fill="none" xmlns="http://www.w3.org/2000/svg">
<path d="M38.8509 53.9251C34.6706 54.9479 30.2747 54.6322 26.2834 53.0226C22.2922 51.4129 18.9072 48.5906 16.606 44.9539C14.3049 41.3172 13.2038 37.0497 13.4582 32.7536C13.7126 28.4575 15.3096 24.3498 18.0238 21.0101C20.738 17.6703 24.4325 15.2672 28.5858 14.1398C32.7391 13.0124 37.1415 13.2177 41.1719 14.7267C45.2023 16.2356 48.6571 18.9721 51.0488 22.5499" stroke="#DDFCD3" stroke-width="15"/>
<path d="M33.3677 12.9784C37.4003 12.9784 41.3424 14.1742 44.6954 16.4146C48.0484 18.655 50.6617 21.8394 52.2049 25.565C53.7481 29.2907 54.1519 33.3903 53.3652 37.3454C52.5785 41.3005 50.6366 44.9336 47.7851 47.7851C44.9336 50.6366 41.3006 52.5784 37.3454 53.3652C33.3903 54.1519 29.2907 53.7481 25.565 52.2049C21.8394 50.6617 18.655 48.0483 16.4146 44.6953C14.1742 41.3423 12.9784 37.4003 12.9784 33.3677" stroke="#BBFDA5" stroke-width="25"/>
</svg>
