<svg width="35" height="35" viewBox="0 0 35 35" fill="none" xmlns="http://www.w3.org/2000/svg">
<g filter="url(#filter0_i)">
<path d="M20.1542 32.0833H14.8458C14.1606 32.0833 13.5677 31.6065 13.421 30.9371L12.8275 28.1896C12.0357 27.8427 11.2849 27.4088 10.589 26.896L7.90999 27.7492C7.25666 27.9575 6.54643 27.6825 6.20374 27.0885L3.54374 22.4933C3.20481 21.8991 3.32158 21.1495 3.8252 20.6865L5.90333 18.7906C5.80882 17.9318 5.80882 17.0652 5.90333 16.2064L3.8252 14.315C3.32084 13.8518 3.20402 13.1012 3.54374 12.5067L6.19791 7.90853C6.5406 7.31455 7.25083 7.03956 7.90416 7.24791L10.5831 8.10103C10.939 7.8373 11.3096 7.59386 11.6929 7.37187C12.0609 7.16434 12.4396 6.97643 12.8275 6.80895L13.4225 4.06436C13.5684 3.39494 14.1607 2.91738 14.8458 2.91666H20.1542C20.8393 2.91738 21.4316 3.39494 21.5775 4.06436L22.1783 6.81041C22.5878 6.99053 22.9866 7.19407 23.3727 7.41999C23.7328 7.62826 24.0809 7.85661 24.4154 8.10395L27.0958 7.25082C27.7487 7.04326 28.4581 7.31814 28.8006 7.91145L31.4548 12.5096C31.7937 13.1038 31.6769 13.8534 31.1733 14.3164L29.0952 16.2123C29.1897 17.0711 29.1897 17.9377 29.0952 18.7964L31.1733 20.6923C31.6769 21.1553 31.7937 21.9049 31.4548 22.4992L28.8006 27.0973C28.4581 27.6906 27.7487 27.9655 27.0958 27.7579L24.4154 26.9048C24.0762 27.1546 23.7238 27.3858 23.3596 27.5975C22.9772 27.819 22.5829 28.0191 22.1783 28.1969L21.5775 30.9371C21.431 31.6059 20.8389 32.0828 20.1542 32.0833ZM11.1125 23.6673L12.3083 24.5423C12.5779 24.7408 12.8589 24.9234 13.1498 25.0892C13.4235 25.2477 13.7054 25.3918 13.9942 25.5208L15.3548 26.1173L16.0212 29.1667H18.9817L19.6481 26.1158L21.0087 25.5194C21.6027 25.2574 22.1665 24.9318 22.6902 24.5481L23.8875 23.6731L26.864 24.621L28.3442 22.0573L26.0356 19.9529L26.199 18.4771C26.2707 17.8316 26.2707 17.1801 26.199 16.5346L26.0356 15.0587L28.3456 12.95L26.864 10.3848L23.8875 11.3327L22.6902 10.4577C22.1664 10.0723 21.6026 9.74422 21.0087 9.47916L19.6481 8.8827L18.9817 5.83332H16.0212L15.3519 8.88416L13.9942 9.47916C13.7051 9.6061 13.4232 9.74874 13.1498 9.90645C12.8607 10.0717 12.5812 10.2533 12.3127 10.4504L11.1154 11.3254L8.14041 10.3775L6.65728 12.95L8.96583 15.0514L8.80249 16.5287C8.73075 17.1743 8.73075 17.8257 8.80249 18.4712L8.96583 19.9471L6.65728 22.0515L8.13749 24.6152L11.1125 23.6673ZM17.4942 23.3333C14.2725 23.3333 11.6608 20.7217 11.6608 17.5C11.6608 14.2783 14.2725 11.6667 17.4942 11.6667C20.7158 11.6667 23.3275 14.2783 23.3275 17.5C23.3235 20.72 20.7142 23.3293 17.4942 23.3333ZM17.4942 14.5833C15.9008 14.5849 14.6036 15.865 14.5807 17.4582C14.5579 19.0514 15.8179 20.3681 17.4106 20.4154C19.0033 20.4626 20.3391 19.223 20.4108 17.6312V18.2146V17.5C20.4108 15.8892 19.105 14.5833 17.4942 14.5833Z" fill="#5DA3E5"/>
</g>
<defs>
<filter id="filter0_i" x="0" y="0" width="35" height="39" filterUnits="userSpaceOnUse" color-interpolation-filters="sRGB">
<feFlood flood-opacity="0" result="BackgroundImageFix"/>
<feBlend mode="normal" in="SourceGraphic" in2="BackgroundImageFix" result="shape"/>
<feColorMatrix in="SourceAlpha" type="matrix" values="0 0 0 0 0 0 0 0 0 0 0 0 0 0 0 0 0 0 127 0" result="hardAlpha"/>
<feOffset dy="4"/>
<feGaussianBlur stdDeviation="2"/>
<feComposite in2="hardAlpha" operator="arithmetic" k2="-1" k3="1"/>
<feColorMatrix type="matrix" values="0 0 0 0 0.364706 0 0 0 0 0.639216 0 0 0 0 0.898039 0 0 0 1 0"/>
<feBlend mode="normal" in2="shape" result="effect1_innerShadow"/>
</filter>
</defs>
</svg>
