<svg width="140" height="140" viewBox="0 0 140 140" fill="none" xmlns="http://www.w3.org/2000/svg">
<path d="M84.6025 122.277C74.1549 124.833 63.1683 124.044 53.1931 120.021C43.2179 115.998 34.7578 108.945 29.0067 99.8555C23.2555 90.7664 20.5036 80.1008 21.1394 69.3637C21.7751 58.6267 25.7664 48.3604 32.55 40.0135C39.3336 31.6665 48.567 25.6605 58.9472 22.8428C69.3274 20.0252 80.3304 20.5382 90.4034 24.3095C100.476 28.0808 109.111 34.92 115.088 43.8619" stroke="#DDFCD3" stroke-width="25"/>
<path d="M71 21C80.8891 21 90.5561 23.9325 98.7785 29.4265C107.001 34.9206 113.41 42.7295 117.194 51.8658C120.978 61.0021 121.969 71.0555 120.039 80.7545C118.11 90.4536 113.348 99.3627 106.355 106.355C99.3627 113.348 90.4536 118.11 80.7545 120.039C71.0555 121.969 61.0021 120.978 51.8658 117.194C42.7295 113.41 34.9206 107.001 29.4265 98.7785C23.9325 90.5561 21 80.8891 21 71" stroke="#BBFDA5" stroke-width="38"/>
</svg>
