<svg width="30" height="30" viewBox="0 0 30 30" fill="none" xmlns="http://www.w3.org/2000/svg">
<path d="M15 27.5C13.6201 27.4932 12.5011 26.3799 12.4875 25H17.4875C17.4901 25.3342 17.4264 25.6656 17.3 25.975C16.9721 26.7275 16.3023 27.2764 15.5 27.45H15.4938H15.475H15.4525H15.4412C15.296 27.4802 15.1483 27.497 15 27.5ZM25 23.75H5V21.25L7.5 20V13.125C7.43415 11.3614 7.83242 9.61141 8.655 8.05C9.4738 6.60189 10.8734 5.5736 12.5 5.225V2.5H17.5V5.225C20.7238 5.9925 22.5 8.7975 22.5 13.125V20L25 21.25V23.75Z" fill="#BBFDA5"/>
</svg>
