<svg width="187" height="57" viewBox="0 0 187 57" fill="none" xmlns="http://www.w3.org/2000/svg">
<g filter="url(#filter0_d)">
<g filter="url(#filter1_d)">
<path d="M15.3674 12.9102C20.5347 10.6544 27.1144 11.7332 33.2768 12.9102C34.8174 12.9102 36.7432 12.8093 39.0541 12.4058C41.365 12.0023 43.0982 12.9102 43.6759 13.4146C44.2538 13.919 44.2538 14.5243 44.2538 16.9455C44.2538 19.3666 51.7642 17.9543 55.8082 17.9543H74.8732C78.147 17.9543 85.3495 18.4587 88.1609 18.4587C92.7828 18.4587 92.0725 18.2258 93.9381 17.9543C97.4046 17.4499 102.026 16.4411 105.493 16.9455C108.959 17.4499 110.115 20.9807 111.848 23.5028C113.581 26.0248 114.736 23.5028 118.203 23.5028C121.857 23.5028 119.176 19.4675 120.514 16.4411C122.074 12.9102 129.757 11.397 137.268 11.9014C143.276 12.3049 146.704 15.096 147.667 16.4411C149.978 18.4587 154.022 18.4587 158.066 17.9543C162.11 17.4499 162.688 17.4499 164.421 17.9543C167.887 18.9631 167.31 20.3082 167.31 21.9895C167.31 24.1753 167.425 28.7486 167.887 31.5733C168.349 34.398 166.154 36.113 164.998 36.6174C160.377 37.6262 153.118 38.8764 147.089 37.1218C145.356 36.6174 145.356 34.5997 141.89 36.113C138.877 37.4283 132.068 38.635 126.291 37.1218C120.757 35.6724 126.869 35.1042 118.203 33.5909C109.537 32.0777 116.469 34.0953 108.381 36.6174C100.293 39.1394 95.0936 36.6174 93.9381 36.113C92.7827 35.6086 88.7386 35.1042 85.2722 36.113C81.8059 37.1218 72.5623 35.6086 72.5623 37.1218C72.5623 38.3324 61.3929 37.2899 55.8082 36.6174H45.9868L33.2768 36.113H23.4555C21.9149 35.9448 24.4954 36.113 17.1005 36.113C9.70564 36.113 11.2264 31.5733 12.9596 26.5292C12.9596 24.0072 10.8898 21.7409 11.3233 19.4675C11.8042 16.9455 13.0565 13.919 15.3674 12.9102Z" fill="#F6DFE5"/>
<path d="M15.3674 12.9102C20.5347 10.6544 27.1144 11.7332 33.2768 12.9102C34.8174 12.9102 36.7432 12.8093 39.0541 12.4058C41.365 12.0023 43.0982 12.9102 43.6759 13.4146C44.2538 13.919 44.2538 14.5243 44.2538 16.9455C44.2538 19.3666 51.7642 17.9543 55.8082 17.9543H74.8732C78.147 17.9543 85.3495 18.4587 88.1609 18.4587C92.7828 18.4587 92.0725 18.2258 93.9381 17.9543C97.4046 17.4499 102.026 16.4411 105.493 16.9455C108.959 17.4499 110.115 20.9807 111.848 23.5028C113.581 26.0248 114.736 23.5028 118.203 23.5028C121.857 23.5028 119.176 19.4675 120.514 16.4411C122.074 12.9102 129.757 11.397 137.268 11.9014C143.276 12.3049 146.704 15.096 147.667 16.4411C149.978 18.4587 154.022 18.4587 158.066 17.9543C162.11 17.4499 162.688 17.4499 164.421 17.9543C167.887 18.9631 167.31 20.3082 167.31 21.9895C167.31 24.1753 167.425 28.7486 167.887 31.5733C168.349 34.398 166.154 36.113 164.998 36.6174C160.377 37.6262 153.118 38.8764 147.089 37.1218C145.356 36.6174 145.356 34.5997 141.89 36.113C138.877 37.4283 132.068 38.635 126.291 37.1218C120.757 35.6724 126.869 35.1042 118.203 33.5909C109.537 32.0777 116.469 34.0953 108.381 36.6174C100.293 39.1394 95.0936 36.6174 93.9381 36.113C92.7827 35.6086 88.7386 35.1042 85.2722 36.113C81.8059 37.1218 72.5623 35.6086 72.5623 37.1218C72.5623 38.3324 61.3929 37.2899 55.8082 36.6174H45.9868L33.2768 36.113H23.4555C21.9149 35.9448 24.4954 36.113 17.1005 36.113C9.70564 36.113 11.2264 31.5733 12.9596 26.5292C12.9596 24.0072 10.8898 21.7409 11.3233 19.4675C11.8042 16.9455 13.0565 13.919 15.3674 12.9102Z" stroke="#F6DFE5" stroke-width="10"/>
</g>
<path d="M24.382 36.42C22.462 36.42 20.642 36.26 18.922 35.94C17.222 35.6 15.912 35.22 14.992 34.8V28.86H21.592C21.592 29.48 21.732 29.93 22.012 30.21C22.292 30.49 22.802 30.63 23.542 30.63C24.162 30.63 24.602 30.54 24.862 30.36C25.142 30.16 25.282 29.87 25.282 29.49C25.282 29.17 25.152 28.9 24.892 28.68C24.632 28.44 24.182 28.2 23.542 27.96L20.962 27.06C18.742 26.22 17.142 25.23 16.162 24.09C15.202 22.95 14.722 21.41 14.722 19.47C14.722 17.11 15.492 15.32 17.032 14.1C18.592 12.86 21.182 12.24 24.802 12.24C26.542 12.24 28.172 12.42 29.692 12.78C31.232 13.12 32.472 13.58 33.412 14.16V19.53H27.412C27.412 18.53 26.792 18.03 25.552 18.03C24.952 18.03 24.522 18.11 24.262 18.27C24.022 18.41 23.902 18.67 23.902 19.05C23.902 19.39 24.042 19.66 24.322 19.86C24.622 20.06 25.102 20.27 25.762 20.49L28.372 21.39C30.492 22.11 32.032 23.05 32.992 24.21C33.972 25.35 34.462 26.85 34.462 28.71C34.462 31.25 33.602 33.17 31.882 34.47C30.182 35.77 27.682 36.42 24.382 36.42ZM55.7569 31.08V36H46.2769V31.08H47.5369V26.16C47.5369 25.5 47.3969 25.02 47.1169 24.72C46.8369 24.4 46.4169 24.24 45.8569 24.24C44.6569 24.24 44.0569 24.88 44.0569 26.16V31.08H45.3169V36H35.8369V31.08H37.1569V17.58H35.8369V12.66H44.0569V21.66C44.7969 20.74 45.5969 20.05 46.4569 19.59C47.3169 19.13 48.3169 18.9 49.4569 18.9C51.1169 18.9 52.3569 19.42 53.1769 20.46C54.0169 21.5 54.4369 22.93 54.4369 24.75V31.08H55.7569ZM74.8155 31.08V36H66.8955V33.96C66.4555 34.6 65.8355 35.17 65.0355 35.67C64.2555 36.17 63.2955 36.42 62.1555 36.42C60.6555 36.42 59.4755 36.02 58.6155 35.22C57.7555 34.42 57.3255 33.29 57.3255 31.83C57.3255 28.05 60.5355 26.11 66.9555 26.01C66.8955 25.33 66.6355 24.87 66.1755 24.63C65.7155 24.37 64.9355 24.24 63.8355 24.24C62.9355 24.24 61.9655 24.34 60.9255 24.54C59.9055 24.72 58.9655 24.97 58.1055 25.29V19.77C59.1655 19.51 60.3155 19.3 61.5555 19.14C62.7955 18.98 64.0055 18.9 65.1855 18.9C68.1655 18.9 70.2955 19.44 71.5756 20.52C72.8556 21.6 73.4956 23.27 73.4956 25.53V31.08H74.8155ZM66.8955 28.98C65.9955 28.98 65.2955 29.1 64.7955 29.34C64.3155 29.58 64.0755 29.98 64.0755 30.54C64.0755 30.88 64.1755 31.16 64.3755 31.38C64.5955 31.58 64.8955 31.68 65.2755 31.68C65.7955 31.68 66.1955 31.46 66.4755 31.02C66.7555 30.58 66.8955 29.96 66.8955 29.16V28.98ZM89.1926 18.9C89.5926 18.9 89.9726 18.94 90.3326 19.02C90.6926 19.1 90.9926 19.2 91.2326 19.32V25.05C90.4126 24.71 89.5326 24.54 88.5926 24.54C87.3326 24.54 86.3626 24.87 85.6826 25.53C85.0026 26.19 84.6626 27.17 84.6626 28.47V31.08H87.3626V36H76.4426V31.08H77.7626V24.24H76.4426V19.32H84.6626V21.51C85.2226 20.67 85.8626 20.03 86.5826 19.59C87.3026 19.13 88.1726 18.9 89.1926 18.9ZM101.743 36.42C98.9029 36.42 96.6829 35.68 95.0829 34.2C93.4829 32.7 92.6829 30.52 92.6829 27.66C92.6829 24.8 93.4829 22.63 95.0829 21.15C96.6829 19.65 98.9029 18.9 101.743 18.9C104.563 18.9 106.593 19.64 107.833 21.12C109.093 22.58 109.723 24.4 109.723 26.58V28.74H100.003V28.92C100.003 29.66 100.223 30.21 100.663 30.57C101.103 30.91 101.833 31.08 102.853 31.08C104.073 31.08 105.233 30.99 106.333 30.81C107.433 30.63 108.393 30.4 109.213 30.12V34.92C108.513 35.3 107.483 35.65 106.123 35.97C104.783 36.27 103.323 36.42 101.743 36.42ZM103.483 25.44V25.08C103.483 24.4 103.333 23.91 103.033 23.61C102.753 23.31 102.323 23.16 101.743 23.16C101.163 23.16 100.723 23.32 100.423 23.64C100.143 23.94 100.003 24.42 100.003 25.08V25.44H103.483ZM132.15 36.42C128.49 36.42 125.66 35.46 123.66 33.54C121.68 31.62 120.69 28.55 120.69 24.33C120.69 20.11 121.68 17.04 123.66 15.12C125.66 13.2 128.49 12.24 132.15 12.24C135.81 12.24 138.63 13.2 140.61 15.12C142.61 17.04 143.61 20.11 143.61 24.33C143.61 28.55 142.61 31.62 140.61 33.54C138.63 35.46 135.81 36.42 132.15 36.42ZM132.15 31.08C132.83 31.08 133.34 30.9 133.68 30.54C134.02 30.18 134.19 29.62 134.19 28.86V19.8C134.19 19.04 134.02 18.48 133.68 18.12C133.34 17.76 132.83 17.58 132.15 17.58C131.47 17.58 130.96 17.76 130.62 18.12C130.28 18.48 130.11 19.04 130.11 19.8V28.86C130.11 29.64 130.28 30.21 130.62 30.57C130.96 30.91 131.47 31.08 132.15 31.08ZM165.089 31.08V36H155.609V31.08H156.869V26.16C156.869 25.5 156.729 25.02 156.449 24.72C156.169 24.4 155.749 24.24 155.189 24.24C153.989 24.24 153.389 24.88 153.389 26.16V31.08H154.649V36H145.169V31.08H146.489V24.24H145.169V19.32H153.389V21.66C154.829 19.82 156.629 18.9 158.789 18.9C160.449 18.9 161.689 19.42 162.509 20.46C163.349 21.5 163.769 22.93 163.769 24.75V31.08H165.089Z" fill="#F15A82"/>
</g>
<defs>
<filter id="filter0_d" x="2.2667" y="6.59249" width="174.684" height="44.4054" filterUnits="userSpaceOnUse" color-interpolation-filters="sRGB">
<feFlood flood-opacity="0" result="BackgroundImageFix"/>
<feColorMatrix in="SourceAlpha" type="matrix" values="0 0 0 0 0 0 0 0 0 0 0 0 0 0 0 0 0 0 127 0" result="hardAlpha"/>
<feOffset dy="4"/>
<feGaussianBlur stdDeviation="2"/>
<feComposite in2="hardAlpha" operator="out"/>
<feColorMatrix type="matrix" values="0 0 0 0 0 0 0 0 0 0 0 0 0 0 0 0 0 0 0.25 0"/>
<feBlend mode="normal" in2="BackgroundImageFix" result="effect1_dropShadow"/>
<feBlend mode="normal" in="SourceGraphic" in2="effect1_dropShadow" result="shape"/>
</filter>
<filter id="filter1_d" x="0.266701" y="0.592491" width="186.684" height="56.4054" filterUnits="userSpaceOnUse" color-interpolation-filters="sRGB">
<feFlood flood-opacity="0" result="BackgroundImageFix"/>
<feColorMatrix in="SourceAlpha" type="matrix" values="0 0 0 0 0 0 0 0 0 0 0 0 0 0 0 0 0 0 127 0" result="hardAlpha"/>
<feOffset dx="4" dy="4"/>
<feGaussianBlur stdDeviation="5"/>
<feComposite in2="hardAlpha" operator="out"/>
<feColorMatrix type="matrix" values="0 0 0 0 0 0 0 0 0 0 0 0 0 0 0 0 0 0 0.25 0"/>
<feBlend mode="normal" in2="BackgroundImageFix" result="effect1_dropShadow"/>
<feBlend mode="normal" in="SourceGraphic" in2="effect1_dropShadow" result="shape"/>
</filter>
</defs>
</svg>
