<svg width="35" height="35" viewBox="0 0 35 35" fill="none" xmlns="http://www.w3.org/2000/svg">
<g filter="url(#filter0_i_373:1164)">
<path d="M20.1541 32.0834H14.8457C14.1605 32.0834 13.5676 31.6065 13.4209 30.9371L12.8274 28.1896C12.0356 27.8427 11.2848 27.4088 10.5889 26.8961L7.9099 27.7492C7.25657 27.9575 6.54634 27.6825 6.20365 27.0886L3.54365 22.4934C3.20472 21.8991 3.32149 21.1495 3.82511 20.6865L5.90323 18.7906C5.80873 17.9319 5.80873 17.0653 5.90323 16.2065L3.82511 14.315C3.32074 13.8518 3.20393 13.1013 3.54365 12.5067L6.19782 7.90856C6.54051 7.31458 7.25074 7.03959 7.90407 7.24794L10.583 8.10106C10.939 7.83733 11.3095 7.59389 11.6928 7.3719C12.0608 7.16437 12.4395 6.97646 12.8274 6.80898L13.4224 4.0644C13.5683 3.39497 14.1606 2.91741 14.8457 2.91669H20.1541C20.8392 2.91741 21.4315 3.39497 21.5774 4.0644L22.1782 6.81044C22.5877 6.99057 22.9865 7.1941 23.3726 7.42002C23.7327 7.62829 24.0808 7.85664 24.4153 8.10398L27.0957 7.25085C27.7486 7.04329 28.458 7.31817 28.8005 7.91148L31.4547 12.5096C31.7936 13.1039 31.6769 13.8535 31.1732 14.3165L29.0951 16.2123C29.1896 17.0711 29.1896 17.9377 29.0951 18.7965L31.1732 20.6923C31.6769 21.1553 31.7936 21.9049 31.4547 22.4992L28.8005 27.0973C28.458 27.6906 27.7486 27.9655 27.0957 27.7579L24.4153 26.9048C24.0761 27.1546 23.7237 27.3859 23.3595 27.5975C22.9771 27.8191 22.5828 28.0192 22.1782 28.1969L21.5774 30.9371C21.4309 31.6059 20.8388 32.0828 20.1541 32.0834ZM11.1124 23.6673L12.3082 24.5423C12.5778 24.7409 12.8588 24.9235 13.1497 25.0892C13.4234 25.2477 13.7053 25.3918 13.9941 25.5209L15.3547 26.1173L16.0212 29.1667H18.9816L19.648 26.1159L21.0087 25.5194C21.6026 25.2575 22.1664 24.9318 22.6901 24.5481L23.8874 23.6731L26.8639 24.6211L28.3441 22.0573L26.0355 19.9529L26.1989 18.4771C26.2706 17.8316 26.2706 17.1801 26.1989 16.5346L26.0355 15.0588L28.3455 12.95L26.8639 10.3848L23.8874 11.3327L22.6901 10.4577C22.1663 10.0723 21.6025 9.74425 21.0087 9.47919L19.648 8.88273L18.9816 5.83335H16.0212L15.3518 8.88419L13.9941 9.47919C13.705 9.60613 13.4232 9.74877 13.1497 9.90648C12.8606 10.0718 12.5811 10.2534 12.3126 10.4504L11.1153 11.3254L8.14032 10.3775L6.65719 12.95L8.96574 15.0515L8.8024 16.5288C8.73066 17.1743 8.73066 17.8258 8.8024 18.4713L8.96574 19.9471L6.65719 22.0515L8.1374 24.6152L11.1124 23.6673ZM17.4941 23.3334C14.2724 23.3334 11.6607 20.7217 11.6607 17.5C11.6607 14.2784 14.2724 11.6667 17.4941 11.6667C20.7157 11.6667 23.3274 14.2784 23.3274 17.5C23.3234 20.72 20.7141 23.3293 17.4941 23.3334ZM17.4941 14.5834C15.9007 14.585 14.6035 15.865 14.5807 17.4582C14.5578 19.0514 15.8178 20.3681 17.4105 20.4154C19.0032 20.4627 20.339 19.223 20.4107 17.6313V18.2146V17.5C20.4107 15.8892 19.1049 14.5834 17.4941 14.5834Z" fill="#A8ECA2"/>
</g>
<defs>
<filter id="filter0_i_373:1164" x="0" y="0" width="35" height="39" filterUnits="userSpaceOnUse" color-interpolation-filters="sRGB">
<feFlood flood-opacity="0" result="BackgroundImageFix"/>
<feBlend mode="normal" in="SourceGraphic" in2="BackgroundImageFix" result="shape"/>
<feColorMatrix in="SourceAlpha" type="matrix" values="0 0 0 0 0 0 0 0 0 0 0 0 0 0 0 0 0 0 127 0" result="hardAlpha"/>
<feOffset dy="4"/>
<feGaussianBlur stdDeviation="2"/>
<feComposite in2="hardAlpha" operator="arithmetic" k2="-1" k3="1"/>
<feColorMatrix type="matrix" values="0 0 0 0 0.443137 0 0 0 0 0.854902 0 0 0 0 0.403922 0 0 0 1 0"/>
<feBlend mode="normal" in2="shape" result="effect1_innerShadow_373:1164"/>
</filter>
</defs>
</svg>
