<svg width="25" height="32" viewBox="0 0 25 32" fill="none" xmlns="http://www.w3.org/2000/svg">
<g filter="url(#filter0_i_373:1058)">
<path d="M24.8563 12.4281C24.8563 22.3798 13.6217 31.5964 13.6217 31.5964C12.9653 32.1349 11.891 32.1349 11.2345 31.5964C11.2345 31.5964 0 22.3798 0 12.4281C0.000125001 5.56424 5.56436 0 12.4282 0C19.292 0 24.8563 5.56424 24.8563 12.4281Z" fill="#F4B0C2"/>
</g>
<g filter="url(#filter1_d_373:1058)">
<path d="M12.4282 18.6808C8.98041 18.6808 6.17557 15.8758 6.17557 12.4282C6.17557 8.9805 8.98053 6.17542 12.4282 6.17542C15.8758 6.17542 18.6808 8.98038 18.6808 12.428C18.6808 15.8757 15.876 18.6808 12.4282 18.6808Z" fill="#F6DFE5"/>
</g>
<defs>
<filter id="filter0_i_373:1058" x="0" y="0" width="24.8563" height="36.0003" filterUnits="userSpaceOnUse" color-interpolation-filters="sRGB">
<feFlood flood-opacity="0" result="BackgroundImageFix"/>
<feBlend mode="normal" in="SourceGraphic" in2="BackgroundImageFix" result="shape"/>
<feColorMatrix in="SourceAlpha" type="matrix" values="0 0 0 0 0 0 0 0 0 0 0 0 0 0 0 0 0 0 127 0" result="hardAlpha"/>
<feOffset dy="4"/>
<feGaussianBlur stdDeviation="2"/>
<feComposite in2="hardAlpha" operator="arithmetic" k2="-1" k3="1"/>
<feColorMatrix type="matrix" values="0 0 0 0 0.988235 0 0 0 0 0.568627 0 0 0 0 0.67451 0 0 0 1 0"/>
<feBlend mode="normal" in2="shape" result="effect1_innerShadow_373:1058"/>
</filter>
<filter id="filter1_d_373:1058" x="2.17557" y="6.17542" width="20.5052" height="20.5054" filterUnits="userSpaceOnUse" color-interpolation-filters="sRGB">
<feFlood flood-opacity="0" result="BackgroundImageFix"/>
<feColorMatrix in="SourceAlpha" type="matrix" values="0 0 0 0 0 0 0 0 0 0 0 0 0 0 0 0 0 0 127 0" result="hardAlpha"/>
<feOffset dy="4"/>
<feGaussianBlur stdDeviation="2"/>
<feComposite in2="hardAlpha" operator="out"/>
<feColorMatrix type="matrix" values="0 0 0 0 0.988235 0 0 0 0 0.568627 0 0 0 0 0.67451 0 0 0 1 0"/>
<feBlend mode="normal" in2="BackgroundImageFix" result="effect1_dropShadow_373:1058"/>
<feBlend mode="normal" in="SourceGraphic" in2="effect1_dropShadow_373:1058" result="shape"/>
</filter>
</defs>
</svg>
